<?xml version="1.0" encoding="UTF-8"?>
<svg version="1.1" xmlns="http://www.w3.org/2000/svg" width="512" height="512">
<path d="M0 0 C1.52947266 1.10021484 1.52947266 1.10021484 3.08984375 2.22265625 C21.06013094 15.52822118 37.17802861 31.68788435 49.75732422 50.17480469 C51.01568421 52.02303638 52.29055192 53.85912655 53.56640625 55.6953125 C68.81347225 77.84200228 79.22773027 102.74165275 85 129 C85.20882813 129.93166992 85.41765625 130.86333984 85.6328125 131.82324219 C91.74920949 160.44062496 91.52035497 192.51296024 85 221 C84.81808105 221.82967285 84.63616211 222.6593457 84.44873047 223.51416016 C77.19917101 255.92662305 62.61046142 286.7030481 41 312 C46.40986731 318.58185466 52.41317773 324.53320034 58.44970703 330.53149414 C59.60688032 331.68510611 60.76381562 332.83895685 61.92053223 333.99302673 C64.40071755 336.46668983 66.88240272 338.93883465 69.36523819 341.40983772 C73.2933918 345.31961962 77.21712761 349.23381499 81.1401062 353.14878845 C92.29228697 364.27687536 103.4503925 375.3990104 114.61279297 386.5168457 C120.78614461 392.66562835 126.95588053 398.81801626 133.12177932 404.97427267 C137.01869297 408.86465621 140.92006367 412.75049598 144.82482553 416.63300145 C147.2537304 419.05015571 149.67842348 421.47150084 152.10195923 423.89403725 C153.2240851 425.01402048 154.34792705 426.13228746 155.473629 427.2486763 C157.01364836 428.77644836 158.5473139 430.31033816 160.07962036 431.84584045 C160.93831285 432.70139054 161.79700535 433.55694063 162.68171883 434.43841648 C168.6877916 441.07482331 170.37943801 446.14503237 170.2734375 454.921875 C169.80705002 460.17206546 168.20457956 463.99583677 164.28125 467.5625 C159.67365547 470.99867219 155.97699391 472.16261141 150.1875 472.25 C149.17042969 472.27578125 148.15335937 472.3015625 147.10546875 472.328125 C134.64064293 471.0110868 124.56139222 456.70430853 116.12451172 448.23803711 C114.97055715 447.08379976 113.81638093 445.92978396 112.66200256 444.77597046 C109.55921206 441.67346438 106.45949309 438.5679065 103.36035681 435.46175075 C100.10973331 432.20483419 96.85623748 428.9507894 93.60305786 425.69642639 C87.4567081 419.54698075 81.31290974 413.39499271 75.17004597 407.24206501 C68.17073055 400.23153405 61.16854198 393.22387578 54.1661222 386.2164458 C39.77423747 371.8141362 25.38592702 357.40826038 11 343 C10.4639212 343.40421173 9.92784241 343.80842346 9.3755188 344.22488403 C8.66523529 344.75927094 7.95495178 345.29365784 7.22314453 345.84423828 C6.52206573 346.37220001 5.82098694 346.90016174 5.09866333 347.44412231 C-4.73908826 354.73749708 -15.17499501 361.28227601 -26 367 C-26.6688623 367.35416992 -27.33772461 367.70833984 -28.02685547 368.07324219 C-47.62622072 378.27589821 -69.15326604 385.56989041 -91 389 C-92.57624146 389.26055176 -92.57624146 389.26055176 -94.18432617 389.52636719 C-104.74611128 391.12290783 -115.14742802 391.4004739 -125.8125 391.375 C-126.71218506 391.37412384 -127.61187012 391.37324768 -128.53881836 391.37234497 C-172.99814746 391.23007433 -216.70071512 378.09801272 -252.42236328 351.17626953 C-253.90702864 350.06931848 -255.41958174 349.00005494 -256.93359375 347.93359375 C-298.38065292 318.29641575 -326.9042113 271.34706029 -338 222 C-338.21172852 221.0610791 -338.42345703 220.1221582 -338.64160156 219.15478516 C-350.12139573 165.40351435 -339.23573992 106.45423403 -309.84814453 60.18652344 C-307.35545586 56.36476128 -304.70623403 52.67241117 -302 49 C-301.26652344 47.98035156 -300.53304687 46.96070312 -299.77734375 45.91015625 C-268.99076297 4.33028338 -223.36988501 -24.67422704 -173 -36 C-172.0610791 -36.21172852 -171.1221582 -36.42345703 -170.15478516 -36.64160156 C-111.80181483 -49.10419228 -47.92070091 -35.31321127 0 0 Z M-211 22 C-211.63389648 22.34788574 -212.26779297 22.69577148 -212.92089844 23.05419922 C-232.52785223 33.97750213 -250.50823945 49.02713406 -264 67 C-264.4326416 67.56299805 -264.8652832 68.12599609 -265.31103516 68.70605469 C-293.50818074 105.41461568 -306.54040705 151.75690252 -300.63183594 197.87353516 C-297.93293836 216.2429459 -292.93469026 233.24231181 -285 250 C-284.71366699 250.61504395 -284.42733398 251.23008789 -284.13232422 251.86376953 C-273.97289222 273.58093343 -257.99334313 295.06752316 -239 310 C-238.46600586 310.42458496 -237.93201172 310.84916992 -237.38183594 311.28662109 C-211.80684703 331.49646669 -184.02809133 343.37256277 -152 349 C-151.03191406 349.18691406 -150.06382812 349.37382812 -149.06640625 349.56640625 C-122.14201013 353.37355016 -94.53721724 350.05890405 -69 341 C-67.90816406 340.62101562 -66.81632813 340.24203125 -65.69140625 339.8515625 C-37.86409102 329.70157481 -10.41952692 311.42869162 8 288 C8.42458496 287.46600586 8.84916992 286.93201172 9.28662109 286.38183594 C29.49646669 260.80684703 41.37256277 233.02809133 47 201 C47.18691406 200.03191406 47.37382812 199.06382812 47.56640625 198.06640625 C51.37355016 171.14201013 48.05890405 143.53721724 39 118 C38.62101562 116.90816406 38.24203125 115.81632812 37.8515625 114.69140625 C27.70157481 86.86409102 9.42869162 59.41952692 -14 41 C-14.80099121 40.36312256 -14.80099121 40.36312256 -15.61816406 39.71337891 C-71.63221574 -4.54999651 -147.86018556 -12.6640482 -211 22 Z " fill="#000000" transform="translate(342,40)"/>
</svg>
